<?xml version="1.0" standalone="no"?><!DOCTYPE svg PUBLIC "-//W3C//DTD SVG 1.1//EN" "http://www.w3.org/Graphics/SVG/1.1/DTD/svg11.dtd"><svg t="1547373912335" class="icon" style="" viewBox="0 0 1102 1024" version="1.1" xmlns="http://www.w3.org/2000/svg" p-id="1979" xmlns:xlink="http://www.w3.org/1999/xlink" width="215.234375" height="200"><defs><style type="text/css"></style></defs><path d="M204.016467 985.192631A38.695704 38.695704 0 1 0 243.264967 946.607486a38.695704 38.695704 0 0 0-38.806263 38.585145zM0.034826 985.192631a38.695704 38.695704 0 1 0 38.695704-38.585145A38.806263 38.806263 0 0 0 0.034826 985.192631zM1102.420162 649.756154A378.665106 378.665106 0 0 1 777.265686 1023.998894H425.687573a38.695704 38.695704 0 0 1-38.695704-38.695704 38.695704 38.695704 0 0 1 38.695704-38.695704h346.271274a300.610343 300.610343 0 0 0-16.915551-595.913846h-625.764818l208.514567 208.514566a38.695704 38.695704 0 0 1-54.726782 55.279578L12.970247 343.949531a44.223662 44.223662 0 0 1 0-62.576481L283.066263 11.055916a38.806263 38.806263 0 0 1 54.726782 0 38.585145 38.585145 0 0 1 0 54.726781L130.605188 273.302231h627.644324a378.775665 378.775665 0 0 1 344.17065 376.453923z" p-id="1980"></path></svg>