<?xml version="1.0" standalone="no"?><!DOCTYPE svg PUBLIC "-//W3C//DTD SVG 1.1//EN" "http://www.w3.org/Graphics/SVG/1.1/DTD/svg11.dtd"><svg t="1533550056962" class="icon" style="" viewBox="0 0 1024 1024" version="1.1" xmlns="http://www.w3.org/2000/svg" p-id="2203" xmlns:xlink="http://www.w3.org/1999/xlink" width="200" height="200"><defs><style type="text/css"></style></defs><path d="M846.005097 957.24155c-28.587082 0-57.174164-10.911514-78.996169-32.733519L96.632851 254.131955c-43.644009-43.644009-43.644009-114.348328 0-157.992337s114.348328-43.644009 157.992337 0L925.001265 766.515694c43.644009 43.644009 43.644009 114.348328 0 157.992337C903.17926 946.330036 874.592179 957.24155 846.005097 957.24155z" p-id="2204"></path><path d="M175.62902 957.24155c-28.587082 0-57.174164-10.911514-78.996169-32.733519-43.644009-43.644009-43.644009-114.348328 0-157.992337L767.008928 96.139617c43.644009-43.644009 114.348328-43.644009 157.992337 0s43.644009 114.348328 0 157.992337L254.625188 924.508032C232.803183 946.330036 204.216101 957.24155 175.62902 957.24155z" p-id="2205"></path></svg>