<?xml version="1.0" standalone="no"?><!DOCTYPE svg PUBLIC "-//W3C//DTD SVG 1.1//EN" "http://www.w3.org/Graphics/SVG/1.1/DTD/svg11.dtd"><svg t="1533612028321" class="icon" style="" viewBox="0 0 1024 1024" version="1.1" xmlns="http://www.w3.org/2000/svg" p-id="2247" xmlns:xlink="http://www.w3.org/1999/xlink" width="200" height="200"><defs><style type="text/css"></style></defs><path d="M912 214.6H109.6c-21.1 0-38.2 17.1-38.2 38.2S88.5 291 109.6 291h88.6v469.1c0 90.7 73.8 164.5 164.5 164.5h296.2c90.7 0 164.5-73.8 164.5-164.5V290.9H912c21.1 0 38.2-17.1 38.2-38.2 0-21-17.1-38.1-38.2-38.1zM462.5 683c0 21.1-17.1 38.2-38.2 38.2s-38.2-17.1-38.2-38.2V443.1c0-21.1 17.1-38.2 38.2-38.2s38.2 17.1 38.2 38.2V683z m172.9 0c0 21.1-17.1 38.2-38.2 38.2S559 704.1 559 683V443.1c0-21.1 17.1-38.2 38.2-38.2s38.2 17.1 38.2 38.2V683zM364.5 174.6h292.6c21.1 0 38.2-17.1 38.2-38.2s-17.1-38.2-38.2-38.2H364.5c-21.1 0-38.2 17.1-38.2 38.2s17.1 38.2 38.2 38.2z" p-id="2248"></path></svg>