<?xml version="1.0" standalone="no"?><!DOCTYPE svg PUBLIC "-//W3C//DTD SVG 1.1//EN" "http://www.w3.org/Graphics/SVG/1.1/DTD/svg11.dtd"><svg t="1534331685888" class="icon" style="" viewBox="0 0 1024 1024" version="1.1" xmlns="http://www.w3.org/2000/svg" p-id="2206" xmlns:xlink="http://www.w3.org/1999/xlink" width="200" height="200"><defs><style type="text/css"></style></defs><path d="M898.327273 453.818182L523.636364 139.636364c-6.981818-6.981818-18.618182-6.981818-23.272728 0L125.672727 451.490909c-9.309091 6.981818-11.636364 20.945455-4.654545 32.581818 6.981818 9.309091 20.945455 11.636364 32.581818 4.654546h34.909091v253.672727c0 81.454545 69.818182 148.945455 151.272727 148.945455h337.454546c86.109091 0 151.272727-65.163636 151.272727-148.945455V488.727273h34.909091c9.309091 6.981818 23.272727 6.981818 32.581818-4.654546 16.290909-9.309091 13.963636-25.6 2.327273-30.254545zM605.090909 588.8c0 41.890909-32.581818 74.472727-74.472727 74.472727h-37.236364c-41.890909 0-74.472727-32.581818-74.472727-74.472727v-37.236364c0-41.890909 32.581818-74.472727 74.472727-74.472727h37.236364c41.890909 0 74.472727 32.581818 74.472727 74.472727v37.236364z" p-id="2207"></path></svg>