<?xml version="1.0" standalone="no"?><!DOCTYPE svg PUBLIC "-//W3C//DTD SVG 1.1//EN" "http://www.w3.org/Graphics/SVG/1.1/DTD/svg11.dtd"><svg t="1545817640934" class="icon" style="" viewBox="0 0 1024 1024" version="1.1" xmlns="http://www.w3.org/2000/svg" p-id="1150" xmlns:xlink="http://www.w3.org/1999/xlink" width="200" height="200"><defs><style type="text/css"></style></defs><path d="M971.763212 573.123545l-159.434192-159.838792V228.548592a41.28368 41.28368 0 0 0-41.276455-41.276455H586.88718l-47.24431-47.367135a41.262005 41.262005 0 0 0-29.232371-12.130783h-1.069301a41.25478 41.25478 0 0 0-29.181796 12.123558L48.02461 573.13077a41.276455 41.276455 0 0 0 58.450293 58.298567l35.503676-35.604826v262.766218a41.26923 41.26923 0 0 0 41.276455 41.26923h217.77611a41.26923 41.26923 0 0 0 41.276455-41.26923V679.461173h135.172624v179.122331a41.26923 41.26923 0 0 0 41.276455 41.26923h217.79056a41.276455 41.276455 0 0 0 41.276455-41.26923V595.824511l35.510901 35.604826a41.276455 41.276455 0 0 0 58.428618-58.305792z m-241.987102-303.305722v60.704494l-60.55277-60.704494h60.55277z" fill="" p-id="1151"></path></svg>