<?xml version="1.0" standalone="no"?><!DOCTYPE svg PUBLIC "-//W3C//DTD SVG 1.1//EN" "http://www.w3.org/Graphics/SVG/1.1/DTD/svg11.dtd"><svg t="1533879573791" class="icon" style="" viewBox="0 0 1024 1024" version="1.1" xmlns="http://www.w3.org/2000/svg" p-id="1905" xmlns:xlink="http://www.w3.org/1999/xlink" width="200" height="200"><defs><style type="text/css"></style></defs><path d="M259.794 730.906a333.604 333.604 0 0 1-76.012-183.686h-155.3c6.918 112.21 51.64 214.175 121.565 293.423l109.747-109.737z m-76.012-244.957a333.379 333.379 0 0 1 76.012-183.603L150.052 192.548C80.122 271.77 35.42 373.74 28.472 485.949h155.31zM303.094 259a333.44 333.44 0 0 1 183.664-75.97V27.735c-112.245 6.866-214.22 51.615-293.411 121.513L303.094 259zM547.988 27.735v155.3a333.338 333.338 0 0 1 183.665 75.97l109.758-109.737C762.168 79.35 660.244 34.621 547.988 27.735M774.932 302.346A333.297 333.297 0 0 1 850.95 485.95h155.32c-6.906-112.21-51.635-214.18-121.553-293.36L774.932 302.346zM486.758 850.176a333.609 333.609 0 0 1-183.664-75.97L193.347 883.936c79.216 69.924 181.166 114.611 293.411 121.539v-155.3zM850.944 547.22a333.542 333.542 0 0 1-75.991 183.686L884.71 840.622c69.92-79.227 114.601-181.192 121.58-293.402H850.944zM731.653 774.205a333.599 333.599 0 0 1-183.665 75.971v155.3c112.23-6.933 214.18-51.615 293.423-121.513L731.653 774.205z" p-id="1906"></path></svg>