<?xml version="1.0" standalone="no"?><!DOCTYPE svg PUBLIC "-//W3C//DTD SVG 1.1//EN" "http://www.w3.org/Graphics/SVG/1.1/DTD/svg11.dtd"><svg t="1533038337995" class="icon" style="" viewBox="0 0 1024 1024" version="1.1" xmlns="http://www.w3.org/2000/svg" p-id="1723" xmlns:xlink="http://www.w3.org/1999/xlink" width="200" height="200"><defs><style type="text/css"></style></defs><path d="M747.776 397.632V203.776A139.84 139.84 0 0 0 607.936 64H418.112a139.776 139.776 0 0 0-139.776 139.776V397.44A127.616 127.616 0 0 0 160 524.48V832a128 128 0 0 0 128 128h448a128 128 0 0 0 128-128V524.48c0-66.752-51.2-120.832-116.224-126.848z m-175.68 321.344v92.48a34.88 34.88 0 0 1-34.88 35.008h-46.4a34.944 34.944 0 0 1-34.944-35.008v-92.48A112.896 112.896 0 0 1 398.72 621.44c0-62.656 51.648-113.536 115.264-113.536s115.264 50.816 115.264 113.536a112.448 112.448 0 0 1-57.152 97.536z m57.216-322.496H398.72V243.328c0-38.592 31.296-69.888 69.888-69.888h90.816c38.592 0 69.888 31.296 69.888 69.888v153.152z" p-id="1724"></path></svg>