<?xml version="1.0" standalone="no"?><!DOCTYPE svg PUBLIC "-//W3C//DTD SVG 1.1//EN" "http://www.w3.org/Graphics/SVG/1.1/DTD/svg11.dtd"><svg t="1534399469089" class="icon" style="" viewBox="0 0 1024 1024" version="1.1" xmlns="http://www.w3.org/2000/svg" p-id="2220" xmlns:xlink="http://www.w3.org/1999/xlink" width="200" height="200"><defs><style type="text/css"></style></defs><path d="M961.081 727.969q0 22.404-7.617 42.119t-21.508 35.398-32.261 26.436-39.879 14.339l0.896 0.896h-613.856q-4.481 0.896-14.339 0.896-34.95 0-65.419-13.443t-53.32-36.294-35.845-53.32-12.994-65.419 12.994-65.419 35.845-53.32 53.32-36.294 65.419-13.443h0.896q-0.896-7.169-0.896-13.443v-14.338q0-63.627 24.196-120.082t66.314-98.127 98.127-65.866 119.635-24.196 120.082 24.196 98.576 65.866 66.314 98.127 24.196 120.082q0 33.158-7.169 64.97t-19.715 60.489q4.481-0.896 9.41-1.344t9.41-0.449q24.196 0 46.151 9.41t38.086 25.989 25.54 38.534 9.41 47.048zM647.431 621.328q17.923 0 23.3-4.033t-7.169-19.267q-12.546-16.13-27.781-42.119t-31.813-52.873-33.605-50.184-33.158-34.053q-16.13-11.65-23.748-12.546t-21.955 10.754q-16.13 13.443-31.365 34.053t-30.917 43.911-31.365 45.704-31.813 39.43q-16.13 16.13-11.65 28.676t22.404 12.546h14.338q8.066 0 17.474 0.449t18.371 0.449h15.235q12.546 0.896 16.13 8.513t3.585 21.059q0 15.235-0.449 26.884t-0.449 22.404-0.449 22.404-0.449 26.884q0 6.274 1.344 13.443t4.929 13.443 10.754 10.305 18.819 4.033h20.611q8.066 0 24.196 0.896 21.508 0 24.644-10.754t3.136-34.053q0-20.611 0.449-37.189t0.449-45.255q0-20.611 4.033-31.813t17.474-11.202q9.858 0 28.228-0.449t28.228-0.449z" p-id="2221"></path></svg>